<?xml version="1.0" encoding="UTF-8"?>
<svg id="Layer_1" data-name="Layer 1" xmlns="http://www.w3.org/2000/svg" xmlns:xlink="http://www.w3.org/1999/xlink" viewBox="0 0 1033.72 321.99">
  <defs>
    <style>
      .cls-1 {
        fill: #fff;
      }

      .cls-1, .cls-2 {
        fill-rule: evenodd;
      }

      .cls-3 {
        fill: url(#linear-gradient-2);
      }

      .cls-2 {
        fill: url(#linear-gradient);
      }
    </style>
    <linearGradient id="linear-gradient" x1="125.77" y1="55.62" x2="125.77" y2="-52.39" gradientTransform="translate(0 138.94) scale(1 -1)" gradientUnits="userSpaceOnUse">
      <stop offset="0" stop-color="#ab96e8" stop-opacity=".96"/>
      <stop offset="1" stop-color="#4a367c"/>
    </linearGradient>
    <linearGradient id="linear-gradient-2" x1="62.1" y1="38.09" x2="176.68" y2="236.54" gradientTransform="matrix(1,0,0,1,0,0)" xlink:href="#linear-gradient"/>
  </defs>
  <path d="M358.61,83.91V21.45h-161.17v36.6c19.22,21.91,30.85,50.66,30.85,82.06s-11.63,60.15-30.85,82.06v30.98h75.89v-76.22h80.25v-59.77h-80.25v-33.24h85.29Z"/>
  <path d="M388.16,21.45h75.22v231.69h-75.22V21.45Z"/>
  <path d="M495.61,39.93c0-21.83,16.12-35.93,40.29-35.93s40.29,14.1,40.29,35.93-15.78,35.93-40.29,35.93-40.29-14.1-40.29-35.93ZM498.29,85.26h75.21v167.89h-75.21V85.26Z"/>
  <path d="M654.77,164.17l-58.76-82.27h85.62l20.82,41.97,20.82-41.97h85.62l-58.76,82.27,65.48,88.98h-85.63l-27.53-45.33-27.53,45.33h-85.62l65.48-88.98Z"/>
  <path d="M827.37,307.55l15.11-57.42c3.36,1.68,13.09,5.37,21.49,5.37s14.43-2.01,16.11-8.73l.34-1.34-66.48-163.53h79.57l26.2,89.65,26.18-89.65h79.59l-69.84,172.25c-15.12,37.27-37.94,63.8-77.23,63.8-23.84,0-37.61-3.69-51.03-10.41Z"/>
  <path class="cls-2" d="M174.06,137.3c0,4.28-2.1,7.97-5.83,10.16l-36.6,21.11-36.64,21.15c-3.74,2.14-7.97,2.14-11.67,0-3.74-2.14-5.83-5.83-5.83-10.16v-84.53c0-4.28,2.1-7.97,5.83-10.12,3.74-2.14,7.97-2.14,11.67,0l36.64,21.11,36.6,21.15c3.74,2.14,5.83,5.79,5.83,10.11Z"/>
  <circle class="cls-3" cx="119.39" cy="137.31" r="114.56"/>
  <path class="cls-1" d="M162.92,137.29c0,3.51-1.72,6.53-4.78,8.32l-29.96,17.28-30,17.32c-3.06,1.75-6.53,1.75-9.55,0-3.06-1.75-4.78-4.78-4.78-8.31v-69.2c0-3.5,1.72-6.53,4.78-8.28,3.06-1.75,6.53-1.75,9.55,0l30,17.28,29.96,17.32c3.06,1.75,4.78,4.74,4.78,8.28Z"/>
</svg>